<svg xmlns="http://www.w3.org/2000/svg" version="1.1" xmlns:xlink="http://www.w3.org/1999/xlink" xmlns:svgjs="http://svgjs.dev/svgjs" width="2000" height="1500" viewBox="0 0 2000 1500"><rect width="2000" height="1500" fill="#ffffff"></rect><g transform="matrix(0.75,0,0,0.75,249.090909090909,282.7536437246963)"><svg viewBox="0 0 396 247" data-background-color="#d2d6dc" preserveAspectRatio="xMidYMid meet" height="1247" width="2000" xmlns="http://www.w3.org/2000/svg" xmlns:xlink="http://www.w3.org/1999/xlink"><g id="tight-bounds" transform="matrix(1,0,0,1,0.2400000000000091,-0.09999999999999432)"><svg viewBox="0 0 395.52 247.2" height="247.2" width="395.52"><g><svg></svg></g><g><svg viewBox="0 0 395.52 247.2" height="247.2" width="395.52"><g transform="matrix(1,0,0,1,110.8429613651877,47.215199999999996)"><svg viewBox="0 0 173.83407726962457 152.7696" height="152.7696" width="173.83407726962457"><g><svg viewBox="0 0 173.83407726962457 152.7696" height="152.7696" width="173.83407726962457"><g><svg viewBox="0 0 173.83407726962457 152.7696" height="152.7696" width="173.83407726962457"><g><svg viewBox="0 0 173.83407726962457 152.7696" height="152.7696" width="173.83407726962457"><g id="textblocktransform"><svg viewBox="0 0 173.83407726962457 152.7696" height="152.7696" width="173.83407726962457" id="textblock"><g><svg viewBox="0 0 173.83407726962457 152.7696" height="152.7696" width="173.83407726962457"><g transform="matrix(1,0,0,1,0,0)"><svg width="173.83407726962457" viewBox="4.22 -35.77 40.7 35.77" height="152.7696" data-palette-color="#636365"><path d="M8.5 0L4.22 0 6.93-35.77 14.11-35.77 22.95-10.79 24.32-6.13 24.8-6.13 26.15-10.79 35.01-35.77 42.21-35.77 44.92 0 40.21 0 38.31-28.08 38.11-33.2 37.65-33.2 36.23-28.32 26.56-0.73 22.24-0.73 12.48-28.27 11.01-33.2 10.55-33.2 10.4-28.13 8.5 0Z" opacity="1" transform="matrix(1,0,0,1,0,0)" fill="#000000" class="wordmark-text-0" data-fill-palette-color="primary" id="text-0"></path></svg></g></svg></g></svg></g></svg></g></svg></g></svg></g></svg></g><g><path d="M0 123.6c0-68.262 55.338-123.6 123.6-123.6 30.402 0 58.24 10.976 79.768 29.183l-11.147 0c-19.26-14.022-42.974-22.294-68.621-22.295-64.458 0-116.712 52.254-116.712 116.712 0 64.458 52.254 116.712 116.712 116.712 25.647 0 49.361-8.272 68.621-22.295l11.147 0c-21.528 18.206-49.366 29.183-79.768 29.183-68.262 0-123.6-55.338-123.6-123.6z" fill="#000000" stroke="transparent" data-fill-palette-color="tertiary"></path></g></svg></g><defs></defs></svg><rect width="395.52" height="247.2" fill="none" stroke="none" visibility="hidden"></rect></g></svg></g></svg>